<?xml version="1.0" ?><svg id="Layer_1" style="enable-background:new 0 0 137.3 139.3;" version="1.1" viewBox="0 0 137.3 139.3" xml:space="preserve" xmlns="http://www.w3.org/2000/svg" xmlns:xlink="http://www.w3.org/1999/xlink"><style type="text/css">
	.st0{fill:#2C8AAA;}
	.st1{opacity:0.19;clip-path:url(#XMLID_79_);fill:#070808;}
	.st2{fill:#F7F7F7;}
	.st3{fill:#BDC2C7;}
</style><circle class="st0" cx="68.9" cy="69.6" id="XMLID_68_" r="66.2"/><g id="XMLID_55_"><defs><circle cx="69" cy="69.6" id="XMLID_56_" r="66.2"/></defs><clipPath id="XMLID_79_"><use style="overflow:visible;" xlink:href="#XMLID_56_"/></clipPath><polygon class="st1" id="XMLID_67_" points="97.1,33.4 141.6,68.8 134.3,135.8 91.8,131.8 44.2,98.2  "/></g><g id="XMLID_33_"><path class="st2" d="M93.4,99.9H48c-2.8,0-5.2-2.3-5.2-5.2V37.1c0-2.8,2.3-5.2,5.2-5.2h45.4c2.8,0,5.2,2.3,5.2,5.2   v57.7C98.6,97.6,96.2,99.9,93.4,99.9z" id="XMLID_150_"/><rect class="st0" height="8.8" id="XMLID_147_" width="44.3" x="48.6" y="38.6"/><rect class="st3" height="3.1" id="XMLID_144_" width="44.3" x="48.6" y="50.7"/><rect class="st3" height="3.1" id="XMLID_141_" width="44.3" x="48.6" y="57.2"/><rect class="st3" height="3.1" id="XMLID_138_" width="44.3" x="48.6" y="77.3"/><rect class="st3" height="3.1" id="XMLID_135_" width="44.3" x="48.6" y="83.9"/><rect class="st3" height="3.1" id="XMLID_53_" width="33.1" x="48.6" y="90.6"/><rect class="st3" height="3.1" id="XMLID_50_" width="22.2" x="70.7" y="70.6"/><rect class="st3" height="3.1" id="XMLID_41_" width="22.2" x="70.8" y="63.9"/><rect class="st0" height="9.8" id="XMLID_39_" width="18.7" x="48.6" y="63.9"/></g></svg>